<?xml version="1.0" standalone="yes"?>
<svg xmlns="http://www.w3.org/2000/svg" width="500" height="500">
<path style="fill:#fefefe; stroke:none;" d="M0 0L0 500L500 500L500 0L0 0z"/>
<path style="fill:#d6dce2; stroke:none;" d="M241 114L241 115L252 115L241 114z"/>
<path style="fill:#849baa; stroke:none;" d="M234.667 115.333L235.333 115.667L234.667 115.333z"/>
<path style="fill:#012346; stroke:none;" d="M83 387L83 388L63 388C65.4017 394.062 74.5301 392 80 392L132 392L352 392L411 392C416.728 392 427.482 394.356 430 388L410 388L410 387C419.506 381.795 430.086 363.257 417.854 354.845C411.87 350.73 399.976 353 393 353L393 221C393 203.583 397.463 179.379 387.906 164.011C371.64 137.852 330.071 157.603 306.087 150.588C299.208 148.576 293.624 135.167 287.999 130.333C271.478 116.134 249.012 111.323 228 117.176C217.735 120.035 207.268 127.095 200.224 135.01C195.684 140.113 192.558 150.072 184.989 150.899C161.99 153.411 123.115 141.273 106.578 162.028C95.6309 175.766 100 198.507 100 215L100 307C100 319.486 103.184 336.952 99.5877 348.899C96.754 358.313 78.5254 348.791 72.8447 357.101C66.1146 366.947 73.0692 382.853 83 387z"/>
<path style="fill:#738a9b; stroke:none;" d="M216 122L217 123L216 122z"/>
<path style="fill:#748699; stroke:none;" d="M278 123L279 124L278 123z"/>
<path style="fill:#8798a7; stroke:none;" d="M211 125L212 126L211 125z"/>
<path style="fill:#7b8d9e; stroke:none;" d="M281 125L282 126L281 125z"/>
<path style="fill:#8292a2; stroke:none;" d="M207 128L208 129L207 128z"/>
<path style="fill:#788d9f; stroke:none;" d="M285 128L286 129L285 128z"/>
<path style="fill:#576c7f; stroke:none;" d="M242 131L242 132L249 132L242 131z"/>
<path style="fill:#91a9b5; stroke:none;" d="M237 132L237 133L240 133L237 132z"/>
<path style="fill:#fdfffe; stroke:none;" d="M220 215C225.627 205.006 232.363 195.607 238.63 186.011C240.924 182.5 244.268 178.443 248.937 180.486C256.832 183.942 262.394 198.974 266.81 205.999C268.819 209.194 271.485 214.633 276.017 212.181C292.023 203.526 295.741 175.159 289.057 160C277.908 134.715 243.436 122.403 220 139.667C213.378 144.545 207.8 151.539 204.355 159C200.544 167.252 199.918 178.102 201.495 187C203.514 198.394 210.775 208.28 220 215z"/>
<path style="fill:#8b99a6; stroke:none;" d="M253 132L253 133L256 133L253 132z"/>
<path style="fill:#a0b6c4; stroke:none;" d="M233.667 133.333L234.333 133.667L233.667 133.333z"/>
<path style="fill:#728798; stroke:none;" d="M223 137L224 138L223 137z"/>
<path style="fill:#7c8e9d; stroke:none;" d="M195 141L196 142L195 141z"/>
<path style="fill:#818e9f; stroke:none;" d="M298 142L299 143L298 142z"/>
<path style="fill:#7b8a9a; stroke:none;" d="M193 144L194 145L193 144z"/>
<path style="fill:#b5c0c9; stroke:none;" d="M368.667 151.333L369.333 151.667L368.667 151.333z"/>
<path style="fill:#8592a1; stroke:none;" d="M382 157L383 158L382 157z"/>
<path style="fill:#8193a1; stroke:none;" d="M105 163L106 164L105 163z"/>
<path style="fill:#96abbc; stroke:none;" d="M201.333 167.667L201.667 168.333L201.333 167.667z"/>
<path style="fill:#7e8c99; stroke:none;" d="M291 167L291 170L292 170L291 167z"/>
<path style="fill:#6d9fc2; stroke:none;" d="M128 169L128 170L166 170L183 172C184.734 167.4 173.813 169 171 169L128 169z"/>
<path style="fill:#6a9abe; stroke:none;" d="M309 169L309 170L365 170C349.886 164.352 325.184 169 309 169z"/>
<path style="fill:#87c7eb; stroke:none;" d="M119 202L120 202C120 193.779 119.359 184.486 126.185 178.462C131.105 174.12 137.92 175 144 175L183 175L183 170L140 170C134.356 170 127.042 168.825 122.379 172.73C115.395 178.578 117.206 194.047 119 202z"/>
<path style="fill:#a1d8f7; stroke:none;" d="M309 170C309 184.689 307.475 198.16 299.494 211C296.013 216.601 283.908 223.696 283.309 230.059C282.712 236.403 293.494 249.954 298 254L309 235C305.417 235 286.469 232.415 297.133 226.15C301.567 223.544 314.745 223.339 320 223.167C323.053 223.067 325.954 224.653 329 224.91C335.311 225.442 349.928 222.014 354.431 227.409C361.754 236.181 336.366 235 333 235C334.733 240.137 338.43 248.91 344.125 250.588C349.349 252.126 357.142 248.847 361.573 252.714C369.949 260.024 351.285 261 348 261L362.636 286L374 303L374 206C374 197.055 377.534 178.814 369.844 172.521C365.168 168.695 357.628 170 352 170L309 170z"/>
<path style="fill:#aebecb; stroke:none;" d="M200 171L200 182L201 182L200 171z"/>
<path style="fill:#406d8e; stroke:none;" d="M183 172L183 184L184 184L183 172z"/>
<path style="fill:#6a7c90; stroke:none;" d="M292 173L292 180L293 180L292 173z"/>
<path style="fill:#a0d9f7; stroke:none;" d="M120 202L119 202L119 200L118 200L118 304L119 304L143 261C139.663 260.998 124.315 259.294 131.454 252.717C135.53 248.962 142.981 252.049 147.857 250.588C153.472 248.905 156.891 239.921 159 235C155.636 235 131.444 236.302 137.819 227.52C141.047 223.073 164.465 223.173 170 223.398C175.594 223.624 191.141 223.065 195.583 226.15C198.51 228.182 197.502 232.055 194.783 233.715C190.637 236.247 183.669 235 179 235L191 255L192 255C195.972 249.083 207.827 236.129 207.501 229C207.229 223.074 197.63 216.789 194.381 212C186.986 201.1 183.076 188.138 183 175L143 175C137.083 175 130.015 174.011 125.342 178.462C118.975 184.523 120 194.053 120 202z"/>
<path style="fill:#627d93; stroke:none;" d="M99 178L99 352L100 352L100 231C100 215.645 104.363 192.349 99 178z"/>
<path style="fill:#77a6c4; stroke:none;" d="M374 179L374 305L375 305L375 218C375 206.469 378.038 189.806 374 179z"/>
<path style="fill:#5f7084; stroke:none;" d="M200.333 182.667L200.667 183.333L200.333 182.667z"/>
<path style="fill:#184668; stroke:none;" d="M117 183L117 305L118 305L118 221L117 183z"/>
<path style="fill:#9daaba; stroke:none;" d="M291.333 184.667L291.667 185.333L291.333 184.667z"/>
<path style="fill:#7b8f9a; stroke:none;" d="M254 185L255 186L254 185z"/>
<path style="fill:#3e6e92; stroke:none;" d="M308 185L308 188L309 188L308 185z"/>
<path style="fill:#4f7c99; stroke:none;" d="M139 186L139 187L173 187L139 186z"/>
<path style="fill:#4f7b98; stroke:none;" d="M320 186L320 187L354 187L320 186z"/>
<path style="fill:#012245; stroke:none;" d="M138.417 188.15C135.147 190.418 136.751 194.577 140.101 195.588C145.859 197.324 169.966 198.653 174.278 194.284C176.944 191.583 175.286 187.887 171.899 187.216C165.174 185.884 144.09 184.212 138.417 188.15z"/>
<path style="fill:#617286; stroke:none;" d="M201.333 187.667L201.667 188.333L201.333 187.667z"/>
<path style="fill:#728593; stroke:none;" d="M237 187L238 188L237 187z"/>
<path style="fill:#002448; stroke:none;" d="M318.722 188.15C315.241 191.003 318.791 195.173 322.042 195.784C328.216 196.944 350.638 198.849 355.141 194.156C358.016 191.16 355.231 187.832 351.958 187.216C345.747 186.048 323.65 184.109 318.722 188.15z"/>
<path style="fill:#577fa2; stroke:none;" d="M184.333 188.667L184.667 189.333L184.333 188.667z"/>
<path style="fill:#3d7292; stroke:none;" d="M176 189L176 193L177 193L176 189z"/>
<path style="fill:#497496; stroke:none;" d="M316 189L316 193L317 193L316 189z"/>
<path style="fill:#7f8c95; stroke:none;" d="M257 190L258 191L257 190z"/>
<path style="fill:#5683a4; stroke:none;" d="M307.333 191.667L307.667 192.333L307.333 191.667z"/>
<path style="fill:#8b97a5; stroke:none;" d="M287 197L288 198L287 197z"/>
<path style="fill:#7f8f9e; stroke:none;" d="M227 202L228 203L227 202z"/>
<path style="fill:#fcffff; stroke:none;" d="M246 203L246.689 238L256.649 253L267 265L275.306 251L267.334 236L246 203z"/>
<path style="fill:#8a97a7; stroke:none;" d="M209 204L210 205L209 204z"/>
<path style="fill:#012349; stroke:none;" d="M132.298 205.845C128.479 207.712 129.236 212.421 133.102 213.588C143.657 216.774 158.975 214 170 214C173.344 214 179.499 215.129 182.278 212.85C186.944 209.025 180.429 205.247 176.996 205.042C166.738 204.427 156.276 205 146 205C141.906 205 136.081 203.995 132.298 205.845z"/>
<path style="fill:#7e8b9b; stroke:none;" d="M225 205L226 206L225 205z"/>
<path style="fill:#002448; stroke:none;" d="M311.298 205.845C308.03 207.441 307.507 212.311 311.298 213.588C321.951 217.175 338.749 214 350 214C353.344 214 359.499 215.13 362.278 212.85C366.944 209.025 360.429 205.247 356.996 205.042C346.408 204.407 335.608 205 325 205C320.904 205 315.084 203.996 311.298 205.845z"/>
<path style="fill:#2b597b; stroke:none;" d="M184 208L184 212L185 212L184 208z"/>
<path style="fill:#224d70; stroke:none;" d="M132 214L132 215L182 215C168.402 209.918 146.547 214 132 214z"/>
<path style="fill:#7f90a2; stroke:none;" d="M253 214L254 215L253 214z"/>
<path style="fill:#a0b7c9; stroke:none;" d="M272.667 214.333L273.333 214.667L272.667 214.333z"/>
<path style="fill:#1c496a; stroke:none;" d="M311 214L311 215L361 215C347.402 209.918 325.547 214 311 214z"/>
<path style="fill:#5d8baf; stroke:none;" d="M319 222L319 223L322 223L319 222z"/>
<path style="fill:#2f577a; stroke:none;" d="M136 227L136 232L137 232L136 227z"/>
<path style="fill:#527a9e; stroke:none;" d="M293 228L293 231L294 231L293 228z"/>
<path style="fill:#5b8dae; stroke:none;" d="M356 228L356 231L357 231L356 228z"/>
<path style="fill:#7e8e9e; stroke:none;" d="M263 230L264 231L263 230z"/>
<path style="fill:#4a7595; stroke:none;" d="M139 234L139 235L159 235L139 234z"/>
<path style="fill:#49799d; stroke:none;" d="M179 234L179 235L195 235L179 234z"/>
<path style="fill:#457394; stroke:none;" d="M296 234L296 235L309 235L296 234z"/>
<path style="fill:#447296; stroke:none;" d="M332 236L353 235C348.129 233.18 335.862 232.175 332 236z"/>
<path style="fill:#68a6cb; stroke:none;" d="M246 239L246 303L247 303C254.89 292.421 263.295 282.296 271.535 272C277.382 264.695 282.616 259.861 277 251L267 265L246 239z"/>
<path style="fill:#758698; stroke:none;" d="M274 247L275 248L274 247z"/>
<path style="fill:#b6c5d8; stroke:none;" d="M168 249L168 275L169 275L168 249z"/>
<path style="fill:#fefffd; stroke:none;" d="M322 250C322 268.636 319.724 284.245 331 300C334.894 296.621 341.629 289.425 341.91 284C342.111 280.123 338.626 276.099 336.684 273C331.863 265.307 327.378 257.322 322 250z"/>
<path style="fill:#fafefd; stroke:none;" d="M169 251C169 261.719 167.391 272.493 173 282L176 282C177.757 279.044 181.448 275.527 181.702 272C182.15 265.762 173.138 255.199 169 251z"/>
<path style="fill:#728ba1; stroke:none;" d="M323 252L324 253L323 252z"/>
<path style="fill:#77889a; stroke:none;" d="M172 255L173 256L172 255z"/>
<path style="fill:#76a8c9; stroke:none;" d="M132 260L132 261L143 263C144.7 258.491 134.789 260 132 260z"/>
<path style="fill:#74a7c4; stroke:none;" d="M347 260L347 261L361 261L347 260z"/>
<path style="fill:#788898; stroke:none;" d="M179 266L180 267L179 266z"/>
<path style="fill:#62a1cc; stroke:none;" d="M176 282L173 282L169 275L168 275L168 302C174.785 296.553 187.805 281.819 184 273L176 282z"/>
<path style="fill:#69a6d2; stroke:none;" d="M343 284L331 300L323 286L322 286L322 313L323 313L331 301L332 301L344 322C364.282 314.396 351.268 295.437 343 284z"/>
<path style="fill:#0d4168; stroke:none;" d="M331 301C318.076 315.385 327.699 319.743 335 334L347 323L347 322L331 301z"/>
<path style="fill:#c5cdd4; stroke:none;" d="M79 352L79 353L99 353L79 352z"/>
<path style="fill:#b1bcc6; stroke:none;" d="M393 352L393 353L414 353L393 352z"/>
<path style="fill:#8b95a5; stroke:none;" d="M416 353L417 354L416 353z"/>
<path style="fill:#8490a0; stroke:none;" d="M73 355L74 356L73 355z"/>
<path style="fill:#3b4b63; stroke:none;" d="M70 362L70 370L71 370L70 362z"/>
<path style="fill:#184365; stroke:none;" d="M88 366L88 367L215 367C204.194 362.961 187.531 366 176 366L88 366z"/>
<path style="fill:#1c4769; stroke:none;" d="M280 366L280 367L405 367C394.194 362.961 377.531 366 366 366L280 366z"/>
<path style="fill:#9cd7f7; stroke:none;" d="M88 367C91.9285 376.386 99.0342 376 108 376L149 376L337 376L385 376C393.523 376 401.524 376.201 405 367L284 367.014L270 369.927L228 370L210 367.015L88 367z"/>
<path style="fill:#1b4669; stroke:none;" d="M218 369L218 370L275 370L256 369L218 369z"/>
<path style="fill:#b5bfc9; stroke:none;" d="M422.333 370.667L422.667 371.333L422.333 370.667z"/>
<path style="fill:#214c6e; stroke:none;" d="M99 376L99 377L393 377L365 376L305 376L99 376z"/>
<path style="fill:#8e9ba9; stroke:none;" d="M419 378L420 379L419 378z"/>
<path style="fill:#8291a3; stroke:none;" d="M74 380L75 381L74 380z"/>
<path style="fill:#8d9aab; stroke:none;" d="M415 383L416 384L415 383z"/>
<path style="fill:#758b9f; stroke:none;" d="M410 387L410 388L428 388L410 387z"/>
<path style="fill:#748698; stroke:none;" d="M64 387L64 388L78 388L64 387z"/>
</svg>
