<?xml version="1.0" encoding="UTF-8"?>
<!DOCTYPE svg PUBLIC "-//W3C//DTD SVG 1.1//EN" "http://www.w3.org/Graphics/SVG/1.1/DTD/svg11.dtd">
<svg xmlns="http://www.w3.org/2000/svg" version="1.1" width="500px" height="500px" style="shape-rendering:geometricPrecision; text-rendering:geometricPrecision; image-rendering:optimizeQuality; fill-rule:evenodd; clip-rule:evenodd" xmlns:xlink="http://www.w3.org/1999/xlink">
<g><path style="opacity:0.999" fill="#012447" d="M 239.5,113.5 C 268.508,112.496 289.841,124.663 303.5,150C 325.833,150.333 348.167,150.667 370.5,151C 384.313,155.435 391.813,164.935 393,179.5C 393.369,236.915 393.536,294.248 393.5,351.5C 400.508,351.334 407.508,351.5 414.5,352C 418.333,353.167 420.833,355.667 422,359.5C 424.174,370.643 420.674,379.476 411.5,386C 417.167,386.333 422.833,386.667 428.5,387C 429.38,388.356 429.714,389.856 429.5,391.5C 307.166,391.667 184.833,391.5 62.5,391C 61.273,389.413 61.6063,388.079 63.5,387C 69.1667,386.667 74.8333,386.333 80.5,386C 69.7656,378.121 66.9323,367.954 72,355.5C 73.7998,353.683 75.9664,352.516 78.5,352C 85.1583,351.5 91.825,351.334 98.5,351.5C 98.3333,293.166 98.5,234.832 99,176.5C 103.367,159.472 114.367,150.472 132,149.5C 150.76,150.659 169.593,150.825 188.5,150C 199.839,129.814 216.839,117.647 239.5,113.5 Z"/></g>
<g><path style="opacity:1" fill="#fafcfc" d="M 284.5,202.5 C 280.881,206.785 276.881,210.785 272.5,214.5C 265.166,203.836 258.332,192.836 252,181.5C 247.96,177.65 243.96,177.65 240,181.5C 233,192.5 226,203.5 219,214.5C 196.434,194.625 193.601,172.292 210.5,147.5C 217.282,139.227 225.949,134.06 236.5,132C 264.003,128.848 282.17,140.348 291,166.5C 293.201,179.374 291.034,191.374 284.5,202.5 Z"/></g>
<g><path style="opacity:1" fill="#6999bc" d="M 127.5,169.5 C 145.993,168.503 164.659,168.17 183.5,168.5C 183.5,173.5 183.5,178.5 183.5,183.5C 182.523,180.713 182.19,177.713 182.5,174.5C 182.5,172.833 182.5,171.167 182.5,169.5C 164.167,169.5 145.833,169.5 127.5,169.5 Z"/></g>
<g><path style="opacity:1" fill="#89c5ec" d="M 127.5,169.5 C 145.833,169.5 164.167,169.5 182.5,169.5C 182.5,171.167 182.5,172.833 182.5,174.5C 164.83,174.333 147.164,174.5 129.5,175C 124.901,176.598 122.068,179.765 121,184.5C 120.667,189.5 120.333,194.5 120,199.5C 119.583,200.756 118.75,201.423 117.5,201.5C 117.334,193.493 117.5,185.493 118,177.5C 119.546,172.822 122.713,170.156 127.5,169.5 Z"/></g>
<g><path style="opacity:1" fill="#85bde2" d="M 373.5,303.5 C 373.667,264.165 373.5,224.832 373,185.5C 372.527,183.221 371.527,181.221 370,179.5C 369.667,180.167 369.333,180.833 369,181.5C 368.2,178.365 366.366,176.198 363.5,175C 345.545,174.553 327.712,174.386 310,174.5C 310.118,179.933 309.285,184.933 307.5,189.5C 308.29,182.529 308.623,175.529 308.5,168.5C 327.17,168.333 345.836,168.5 364.5,169C 369,170.833 372.167,174 374,178.5C 374.83,220.904 374.663,262.571 373.5,303.5 Z"/></g>
<g><path style="opacity:1" fill="#9ed5f5" d="M 373.5,303.5 C 364.65,288.98 355.65,274.48 346.5,260C 351.5,259.667 356.5,259.333 361.5,259C 364.07,256.385 364.07,253.718 361.5,251C 354.833,250.667 348.167,250.333 341.5,250C 338.113,245.39 335.113,240.557 332.5,235.5C 339.167,234.833 345.833,234.167 352.5,233.5C 354.89,233.315 355.89,231.982 355.5,229.5C 355.61,227.626 354.944,226.126 353.5,225C 343.833,224.667 334.167,224.333 324.5,224C 323.228,222.954 321.728,222.454 320,222.5C 311.963,224.136 303.796,224.969 295.5,225C 292.833,228 292.833,231 295.5,234C 299.833,234.333 304.167,234.667 308.5,235C 304.541,241.083 300.708,247.249 297,253.5C 294.91,250.978 293.076,248.312 291.5,245.5C 289.735,242.291 287.735,239.291 285.5,236.5C 284.299,233.932 282.966,231.432 281.5,229C 287.978,223.855 293.811,218.022 299,211.5C 302.679,204.479 305.512,197.145 307.5,189.5C 309.285,184.933 310.118,179.933 310,174.5C 327.712,174.386 345.545,174.553 363.5,175C 366.366,176.198 368.2,178.365 369,181.5C 369.333,180.833 369.667,180.167 370,179.5C 371.527,181.221 372.527,183.221 373,185.5C 373.5,224.832 373.667,264.165 373.5,303.5 Z"/></g>
<g><path style="opacity:1" fill="#012548" d="M 317.5,186.5 C 329.838,186.333 342.171,186.5 354.5,187C 357.25,190.012 356.917,192.679 353.5,195C 341.833,195.667 330.167,195.667 318.5,195C 316.265,192.415 315.931,189.582 317.5,186.5 Z"/></g>
<g><path style="opacity:1" fill="#052442" d="M 210.5,147.5 C 193.601,172.292 196.434,194.625 219,214.5C 226,203.5 233,192.5 240,181.5C 243.96,177.65 247.96,177.65 252,181.5C 258.332,192.836 265.166,203.836 272.5,214.5C 276.881,210.785 280.881,206.785 284.5,202.5C 283.963,205.643 282.963,208.643 281.5,211.5C 282.025,212.192 282.692,212.692 283.5,213C 278.499,215.54 273.166,217.206 267.5,218C 269.019,219.351 270.352,220.851 271.5,222.5C 269.309,225.556 266.975,227.723 264.5,229C 268.413,234.026 273.413,235.526 279.5,233.5C 279.33,234.822 279.663,235.989 280.5,237C 282.387,237.78 284.054,237.613 285.5,236.5C 287.735,239.291 289.735,242.291 291.5,245.5C 289.983,245.489 288.816,244.823 288,243.5C 286.692,245.641 285.192,247.641 283.5,249.5C 284.929,251.331 285.429,253.331 285,255.5C 283.989,256.337 282.822,256.67 281.5,256.5C 282.084,259.285 281.084,260.952 278.5,261.5C 280.859,257.146 279.859,253.479 275.5,250.5C 265.94,234.389 256.106,218.389 246,202.5C 245.5,214.495 245.333,226.495 245.5,238.5C 244.673,233.349 244.173,228.016 244,222.5C 243.626,221.584 243.126,220.75 242.5,220C 243.626,216.256 243.793,212.423 243,208.5C 240.885,205.682 239.052,205.849 237.5,209C 236.167,209.667 234.833,209.667 233.5,209C 234.424,208.15 234.424,207.15 233.5,206C 234.272,204.779 235.272,203.779 236.5,203C 236,202.5 235.5,202 235,201.5C 233.527,201.132 232.027,201.632 230.5,203C 229.219,205.403 227.386,207.237 225,208.5C 224.34,211.047 224.507,213.547 225.5,216C 225.056,217.762 224.556,217.595 224,215.5C 223.667,217.833 223.333,220.167 223,222.5C 221.807,220.395 220.14,218.728 218,217.5C 216.997,221.067 215.663,224.067 214,226.5C 211.327,221.507 207.327,218.174 202,216.5C 200.837,213.173 202.003,211.173 205.5,210.5C 204.943,206.637 203.276,202.971 200.5,199.5C 200.709,198.914 201.043,198.414 201.5,198C 198.235,190.568 197.068,182.734 198,174.5C 199.048,167.688 200.714,161.022 203,154.5C 204.736,151.261 207.236,148.927 210.5,147.5 Z"/></g>
<g><path style="opacity:1" fill="#9ed5f5" d="M 182.5,174.5 C 182.19,177.713 182.523,180.713 183.5,183.5C 185.714,201.761 194.048,216.595 208.5,228C 202.274,236.562 196.441,245.396 191,254.5C 186.583,248.002 182.416,241.335 178.5,234.5C 184.472,233.67 190.472,233.17 196.5,233C 198.013,230.084 197.68,227.418 195.5,225C 186.539,224.988 177.706,224.155 169,222.5C 158.19,223.906 147.357,225.072 136.5,226C 134.876,229.206 135.542,231.872 138.5,234C 145.167,234.333 151.833,234.667 158.5,235C 155.5,240 152.5,245 149.5,250C 143.167,250.333 136.833,250.667 130.5,251C 127.833,253.667 127.833,256.333 130.5,259C 135.167,259.333 139.833,259.667 144.5,260C 135.29,274.25 126.457,288.75 118,303.5C 117.5,269.502 117.333,235.502 117.5,201.5C 118.75,201.423 119.583,200.756 120,199.5C 120.333,194.5 120.667,189.5 121,184.5C 122.068,179.765 124.901,176.598 129.5,175C 147.164,174.5 164.83,174.333 182.5,174.5 Z"/></g>
<g><path style="opacity:1" fill="#012548" d="M 137.5,186.5 C 149.838,186.333 162.171,186.5 174.5,187C 176.013,189.916 175.68,192.582 173.5,195C 161.5,195.667 149.5,195.667 137.5,195C 134.899,192.17 134.899,189.337 137.5,186.5 Z"/></g>
<g><path style="opacity:1" fill="#05284c" d="M 310.5,204.5 C 327.503,204.333 344.503,204.5 361.5,205C 364.418,208.472 364.085,211.472 360.5,214C 343.833,214.667 327.167,214.667 310.5,214C 306.599,210.792 306.599,207.626 310.5,204.5 Z"/></g>
<g><path style="opacity:1" fill="#05284c" d="M 131.5,204.5 C 148.17,204.333 164.837,204.5 181.5,205C 185.5,208 185.5,211 181.5,214C 164.833,214.667 148.167,214.667 131.5,214C 127.599,210.792 127.599,207.626 131.5,204.5 Z"/></g>
<g><path style="opacity:1" fill="#f5fafb" d="M 275.5,250.5 C 272.748,255.644 269.248,260.31 265,264.5C 259.021,255.367 252.521,246.7 245.5,238.5C 245.333,226.495 245.5,214.495 246,202.5C 256.106,218.389 265.94,234.389 275.5,250.5 Z"/></g>
<g><path style="opacity:1" fill="#4a779b" d="M 352.5,233.5 C 345.833,234.167 339.167,234.833 332.5,235.5C 331.957,235.44 331.624,235.107 331.5,234.5C 338.468,233.503 345.468,233.17 352.5,233.5 Z"/></g>
<g><path style="opacity:1" fill="#0d263f" d="M 337.5,274.5 C 332.196,266.339 327.03,258.006 322,249.5C 321.5,261.495 321.333,273.495 321.5,285.5C 321.5,286.167 321.5,286.833 321.5,287.5C 319.733,276.033 318.733,264.2 318.5,252C 318.544,250.236 318.878,248.569 319.5,247C 320,246.833 320.5,246.667 321,246.5C 322.801,248.708 325.134,250.041 328,250.5C 329.127,253.377 329.794,256.377 330,259.5C 331.31,262.127 332.977,264.46 335,266.5C 335.658,269.285 336.491,271.951 337.5,274.5 Z"/></g>
<g><path style="opacity:1" fill="#69a5cc" d="M 245.5,238.5 C 252.521,246.7 259.021,255.367 265,264.5C 269.248,260.31 272.748,255.644 275.5,250.5C 279.859,253.479 280.859,257.146 278.5,261.5C 267.119,274.716 256.286,288.383 246,302.5C 245.5,281.169 245.333,259.836 245.5,238.5 Z"/></g>
<g><path style="opacity:1" fill="#f5fbfb" d="M 337.5,274.5 C 338.925,277.688 340.592,280.688 342.5,283.5C 338.885,288.955 335.052,294.288 331,299.5C 327.563,294.941 324.396,290.274 321.5,285.5C 321.333,273.495 321.5,261.495 322,249.5C 327.03,258.006 332.196,266.339 337.5,274.5 Z"/></g>
<g><path style="opacity:1" fill="#ecf6f9" d="M 181.5,270.5 C 181.649,271.552 181.483,272.552 181,273.5C 178.659,276.199 176.325,278.866 174,281.5C 172.289,278.746 170.122,276.412 167.5,274.5C 167.334,265.827 167.5,257.16 168,248.5C 172.725,255.719 177.225,263.052 181.5,270.5 Z"/></g>
<g><path style="opacity:1" fill="#689fc6" d="M 181.5,270.5 C 184.331,272.832 185.498,275.832 185,279.5C 179.333,286.833 173.667,294.167 168,301.5C 167.5,292.506 167.334,283.506 167.5,274.5C 170.122,276.412 172.289,278.746 174,281.5C 176.325,278.866 178.659,276.199 181,273.5C 181.483,272.552 181.649,271.552 181.5,270.5 Z"/></g>
<g><path style="opacity:1" fill="#6aa5cd" d="M 342.5,283.5 C 347.008,291.336 351.675,299.17 356.5,307C 352.936,311.721 349.602,316.554 346.5,321.5C 345.5,321.5 344.5,321.5 343.5,321.5C 340.382,313.938 336.215,306.938 331,300.5C 327.573,304.387 324.406,308.387 321.5,312.5C 321.5,304.167 321.5,295.833 321.5,287.5C 321.5,286.833 321.5,286.167 321.5,285.5C 324.396,290.274 327.563,294.941 331,299.5C 335.052,294.288 338.885,288.955 342.5,283.5 Z"/></g>
<g><path style="opacity:1" fill="#0d4065" d="M 346.5,321.5 C 342.694,325.72 338.86,330.054 335,334.5C 330.279,327.284 325.779,319.951 321.5,312.5C 324.406,308.387 327.573,304.387 331,300.5C 336.215,306.938 340.382,313.938 343.5,321.5C 344.5,321.5 345.5,321.5 346.5,321.5 Z"/></g>
<g><path style="opacity:1" fill="#9dd5f6" d="M 87.5,367.5 C 129.998,366.335 172.665,366.169 215.5,367C 216.167,367.667 216.833,368.333 217.5,369C 236.5,369.667 255.5,369.667 274.5,369C 275.672,368.581 276.672,367.915 277.5,367C 319.837,366.167 362.171,366.333 404.5,367.5C 402.968,371.199 400.301,373.699 396.5,375C 295.833,375.667 195.167,375.667 94.5,375C 91.228,373.233 88.8947,370.733 87.5,367.5 Z"/></g>
</svg>
